<svg xmlns="http://www.w3.org/2000/svg" width="13.577" height="13.58" viewBox="0 0 13.577 13.58">
  <g id="instagram_2_" data-name="instagram (2)" transform="translate(-0.449)">
    <path id="Path_24" data-name="Path 24" d="M13.991,3.993a4.962,4.962,0,0,0-.316-1.647A3.479,3.479,0,0,0,11.689.358,4.975,4.975,0,0,0,10.041.043C9.314.008,9.084,0,7.24,0s-2.075.008-2.8.04A4.964,4.964,0,0,0,2.794.355a3.313,3.313,0,0,0-1.2.785,3.343,3.343,0,0,0-.783,1.2A4.975,4.975,0,0,0,.491,3.99c-.035.727-.042.958-.042,2.8s.008,2.075.04,2.8A4.962,4.962,0,0,0,.8,11.238a3.478,3.478,0,0,0,1.987,1.987,4.976,4.976,0,0,0,1.647.316c.724.032.955.04,2.8.04s2.075-.008,2.8-.04a4.961,4.961,0,0,0,1.647-.316,3.474,3.474,0,0,0,1.987-1.987,4.979,4.979,0,0,0,.316-1.647c.032-.724.04-.955.04-2.8s0-2.075-.035-2.8ZM12.769,9.537a3.722,3.722,0,0,1-.233,1.26,2.253,2.253,0,0,1-1.289,1.289,3.735,3.735,0,0,1-1.26.233c-.716.032-.931.04-2.743.04s-2.029-.008-2.743-.04a3.72,3.72,0,0,1-1.26-.233,2.09,2.09,0,0,1-.78-.507,2.111,2.111,0,0,1-.507-.78,3.736,3.736,0,0,1-.233-1.26c-.032-.716-.04-.931-.04-2.743s.008-2.029.04-2.743a3.72,3.72,0,0,1,.233-1.26,2.064,2.064,0,0,1,.509-.78,2.108,2.108,0,0,1,.78-.507A3.738,3.738,0,0,1,4.5,1.273c.716-.032.931-.04,2.743-.04s2.029.008,2.743.04a3.722,3.722,0,0,1,1.26.233,2.088,2.088,0,0,1,.78.507,2.111,2.111,0,0,1,.507.78,3.737,3.737,0,0,1,.233,1.26c.032.716.04.931.04,2.743s-.008,2.024-.04,2.74Zm0,0" transform="translate(0 0)" fill="#fff"/>
    <path id="Path_25" data-name="Path 25" d="M128.438,124.5a3.489,3.489,0,1,0,3.489,3.489A3.489,3.489,0,0,0,128.438,124.5Zm0,5.751a2.263,2.263,0,1,1,2.263-2.263,2.263,2.263,0,0,1-2.263,2.263Zm0,0" transform="translate(-121.198 -121.197)" fill="#fff"/>
    <path id="Path_26" data-name="Path 26" d="M364.079,89.416a.814.814,0,1,1-.815-.814A.815.815,0,0,1,364.079,89.416Zm0,0" transform="translate(-352.398 -86.251)" fill="#fff"/>
  </g>
</svg>
