<svg xmlns="http://www.w3.org/2000/svg" width="40.303" height="40.303" viewBox="0 0 40.303 40.303">
  <g id="price-tag" transform="translate(0 0)">
    <path id="Path_540" data-name="Path 540" d="M176.623,131.384l5.566-16.7a1.181,1.181,0,0,0-2.24-.747l-5.566,16.7a1.181,1.181,0,1,0,2.24.747Z" transform="translate(-160.599 -104.226)" fill="red"/>
    <path id="Path_541" data-name="Path 541" d="M268.075,196.287a3.542,3.542,0,1,0-3.542-3.542A3.546,3.546,0,0,0,268.075,196.287Zm0-4.723a1.181,1.181,0,1,1-1.181,1.181A1.182,1.182,0,0,1,268.075,191.564Z" transform="translate(-243.71 -174.309)" fill="red"/>
    <path id="Path_542" data-name="Path 542" d="M98.369,189.2a3.542,3.542,0,1,0,3.542,3.542A3.546,3.546,0,0,0,98.369,189.2Zm0,4.723a1.181,1.181,0,1,1,1.181-1.181A1.182,1.182,0,0,1,98.369,193.926Z" transform="translate(-87.362 -174.309)" fill="red"/>
    <path id="Path_543" data-name="Path 543" d="M40.067,14.641l-4.117-5.49.161-1.124a1.181,1.181,0,0,0-.334-1l-2.5-2.5,2.5-2.5a1.181,1.181,0,0,0-1.67-1.67l-2.5,2.5L29.1.346a1.182,1.182,0,0,0-1-.334L16.406,1.682a1.181,1.181,0,0,0-.668.334L1.266,16.488a4.334,4.334,0,0,0,0,6.123L13.512,34.856a4.319,4.319,0,0,0,.815.639v.479A4.334,4.334,0,0,0,18.656,40.3H35.974A4.334,4.334,0,0,0,40.3,35.974V15.35a1.181,1.181,0,0,0-.236-.708Zm-37.131,6.3a1.97,1.97,0,0,1,0-2.783L17.13,3.964,27.844,2.433l2.087,2.087-1.67,1.67-.835-.835a1.181,1.181,0,0,0-1.67,1.67l3.34,3.34a1.181,1.181,0,0,0,1.67-1.67l-.835-.835L31.6,6.19l2.087,2.087L32.158,18.993,17.965,33.186a1.968,1.968,0,0,1-2.783,0ZM37.941,35.974a1.97,1.97,0,0,1-1.968,1.968H18.656a1.97,1.97,0,0,1-1.962-1.823,4.312,4.312,0,0,0,2.94-1.263L34.106,20.384a1.181,1.181,0,0,0,.334-.668l1.037-7.258,2.464,3.286Z" fill="red"/>
  </g>
</svg>
