<svg xmlns="http://www.w3.org/2000/svg" width="35.973" height="35.973" viewBox="0 0 35.973 35.973">
  <path id="support_1_" data-name="support (1)" d="M10.553,17.634A10.3,10.3,0,0,1,7.588,10.4,10.4,10.4,0,1,1,20.424,20.507a2.81,2.81,0,1,1-.065-2.9A7.588,7.588,0,1,0,10.4,10.4a7.5,7.5,0,0,0,2.163,5.271,1.405,1.405,0,1,1-2.009,1.965Zm22.566,5.2a16.85,16.85,0,0,0-4.3-2.69,1.405,1.405,0,0,0-1.141,2.568,14.053,14.053,0,0,1,3.584,2.233,5.6,5.6,0,0,1,1.9,4.211v2.6a1.407,1.407,0,0,1-1.405,1.405H4.216A1.407,1.407,0,0,1,2.81,31.757v-2.6a5.6,5.6,0,0,1,1.9-4.211,16.286,16.286,0,0,1,6.751-3.351,1.405,1.405,0,1,0-.707-2.72,19.092,19.092,0,0,0-7.9,3.96A8.413,8.413,0,0,0,0,29.157v2.6a4.22,4.22,0,0,0,4.216,4.216H31.757a4.22,4.22,0,0,0,4.216-4.216v-2.6a8.413,8.413,0,0,0-2.853-6.322Zm0,0" transform="translate(0)" fill="red"/>
</svg>
