<svg xmlns="http://www.w3.org/2000/svg" width="34.574" height="40.601" viewBox="0 0 34.574 40.601">
  <g id="surface1" transform="translate(0 0.001)">
    <path id="Path_544" data-name="Path 544" d="M34.534,11.015v-.032c-.018-.39-.029-.8-.037-1.262a4.3,4.3,0,0,0-4.052-4.215A16.7,16.7,0,0,1,19.079.716L19.053.691a2.6,2.6,0,0,0-3.531,0L15.5.716A16.7,16.7,0,0,1,4.131,5.507,4.3,4.3,0,0,0,.079,9.722c-.007.456-.019.869-.037,1.261l0,.073c-.091,4.76-.2,10.684,1.778,16.061a20.446,20.446,0,0,0,4.905,7.64,25.659,25.659,0,0,0,9.6,5.678,2.973,2.973,0,0,0,.393.107,2.906,2.906,0,0,0,1.142,0,2.982,2.982,0,0,0,.395-.108,25.676,25.676,0,0,0,9.588-5.681,20.474,20.474,0,0,0,4.905-7.642C34.736,21.719,34.624,15.784,34.534,11.015ZM30.512,26.288c-2.09,5.667-6.357,9.559-13.045,11.9a.6.6,0,0,1-.076.02.535.535,0,0,1-.209,0,.593.593,0,0,1-.075-.02C10.413,35.852,6.143,31.962,4.055,26.295,2.228,21.338,2.331,15.9,2.423,11.1v-.027c.019-.412.031-.844.038-1.319a1.913,1.913,0,0,1,1.8-1.872,20.9,20.9,0,0,0,7.095-1.561A18.562,18.562,0,0,0,17.14,2.44a.22.22,0,0,1,.295,0,18.569,18.569,0,0,0,5.782,3.884,20.9,20.9,0,0,0,7.1,1.561,1.912,1.912,0,0,1,1.8,1.872c.007.477.02.909.038,1.318C32.243,15.879,32.344,21.321,30.512,26.288Zm0,0" transform="translate(0)" fill="red"/>
    <path id="Path_545" data-name="Path 545" d="M100.517,128.41a10.118,10.118,0,1,0,10.118,10.118A10.13,10.13,0,0,0,100.517,128.41Zm0,17.854a7.736,7.736,0,1,1,7.736-7.736A7.745,7.745,0,0,1,100.517,146.264Zm0,0" transform="translate(-83.23 -118.228)" fill="red"/>
    <path id="Path_546" data-name="Path 546" d="M161.681,212.34l-4.7,4.7-1.276-1.276a1.191,1.191,0,1,0-1.685,1.684l2.118,2.118a1.191,1.191,0,0,0,1.684,0l5.542-5.542a1.191,1.191,0,0,0-1.685-1.684Zm0,0" transform="translate(-141.487 -195.181)" fill="red"/>
  </g>
</svg>
