<svg xmlns="http://www.w3.org/2000/svg" width="13.496" height="14.736" viewBox="0 0 13.496 14.736">
  <g id="viber_3_" data-name="viber (3)" transform="translate(-1.38 0.013)">
    <path id="Path_27" data-name="Path 27" d="M14.738,8.518c.439-3.7-.211-6.032-1.384-7.087h0C11.462-.373,5.068-.64,2.8,1.511A6.433,6.433,0,0,0,1.389,6.019c-.039,1.912-.086,5.494,3.252,6.466h0l0,1.484s-.023.6.361.722c.439.142.638-.137,2-1.769a12.5,12.5,0,0,0,4.238-.322,4.244,4.244,0,0,0,3.494-4.082Zm-7.507,3.36s-1.446,1.8-1.9,2.271c-.147.152-.309.138-.306-.164,0-.2.011-2.464.011-2.464C2.211,10.71,2.377,7.66,2.408,6.065A5.362,5.362,0,0,1,3.592,2.281c1.987-1.863,7.592-1.447,9.021-.1,1.746,1.548,1.124,5.921,1.128,6.07a3.367,3.367,0,0,1-2.863,3.309A11.534,11.534,0,0,1,7.231,11.878Z" transform="translate(0 0)" fill="#fff"/>
    <path id="Path_28" data-name="Path 28" d="M12.11,4.3a.186.186,0,0,0,0,.371A3.337,3.337,0,0,1,15.469,8.3a.18.18,0,1,0,.359,0h0A3.7,3.7,0,0,0,12.11,4.3Z" transform="translate(-4.079 -1.666)" fill="#fff"/>
    <path id="Path_29" data-name="Path 29" d="M14.719,8.522a.18.18,0,1,0,.359.009,2.485,2.485,0,0,0-2.441-2.659.186.186,0,0,0-.025.371,2.118,2.118,0,0,1,2.107,2.28Z" transform="translate(-4.278 -2.274)" fill="#fff"/>
    <path id="Path_30" data-name="Path 30" d="M11.93,9.765a.567.567,0,0,0-.739.106l-.267.345a.477.477,0,0,1-.389.152A3.561,3.561,0,0,1,8.191,7.945a.516.516,0,0,1,.147-.4l.334-.276a.615.615,0,0,0,.1-.765,7.973,7.973,0,0,0-.914-1.32A.494.494,0,0,0,7.2,5.069H7.19c-.531.31-1.112.891-.926,1.49a10.036,10.036,0,0,0,2.758,4.16,10.6,10.6,0,0,0,2.841,1.624l.006.009c.578.193,1.14-.411,1.44-.958v0a.526.526,0,0,0-.106-.679,7.233,7.233,0,0,0-1.274-.946Z" transform="translate(-1.874 -1.934)" fill="#fff"/>
    <path id="Path_31" data-name="Path 31" d="M13.063,7.87c.59.034.875.342.906.975a.18.18,0,1,0,.359-.017A1.231,1.231,0,0,0,13.082,7.5a.186.186,0,0,0-.02.371Z" transform="translate(-4.451 -2.903)" fill="#fff"/>
  </g>
</svg>
