<svg width="14" height="14" viewBox="0 0 14 14" fill="none" xmlns="http://www.w3.org/2000/svg">
<path d="M7 1.125C9.6925 1.125 11.875 3.3075 11.875 6C11.875 8.06 10.4275 10.305 7.57 12.759C7.41111 12.8955 7.20853 12.9705 6.99906 12.9703C6.7896 12.9701 6.58715 12.8948 6.4285 12.758L6.2395 12.594C3.5085 10.204 2.125 8.014 2.125 6C2.125 3.3075 4.3075 1.125 7 1.125ZM7 4.125C6.50272 4.125 6.02581 4.32254 5.67417 4.67418C5.32254 5.02581 5.125 5.50272 5.125 6C5.125 6.49728 5.32254 6.9742 5.67417 7.32583C6.02581 7.67746 6.50272 7.875 7 7.875C7.49728 7.875 7.97419 7.67746 8.32583 7.32583C8.67746 6.9742 8.875 6.49728 8.875 6C8.875 5.50272 8.67746 5.02581 8.32583 4.67418C7.97419 4.32254 7.49728 4.125 7 4.125Z" fill="white"/>
</svg>
