<svg width="14" height="14" viewBox="0 0 14 14" fill="none" xmlns="http://www.w3.org/2000/svg">
<g clip-path="url(#clip0_18_15)">
<path fill-rule="evenodd" clip-rule="evenodd" d="M5.0204 7.9338L7.0014 9.2883L8.911 7.9709L13.1915 12.194C13.0788 12.2304 12.9584 12.25 12.8331 12.25H1.1669C1.0129 12.25 0.865901 12.2199 0.730801 12.166L5.0204 7.9338V7.9338ZM14 4.4632V11.0831C14 11.256 13.9622 11.4198 13.895 11.5675L9.6992 7.4277L14 4.4632ZM6.60521e-07 4.5003L4.2294 7.3927L0.0742007 11.4933C0.0249877 11.3621 -0.000148563 11.2232 6.60521e-07 11.0831V4.501V4.5003ZM12.8331 1.75C13.4771 1.75 14 2.2722 14 2.9169V3.3271L6.9986 8.1536L6.60521e-07 3.367V2.9169C6.60521e-07 2.2729 0.522201 1.75 1.1669 1.75H12.8331V1.75Z" fill="white"/>
</g>
<defs>
<clipPath id="clip0_18_15">
<rect width="14" height="14" fill="white"/>
</clipPath>
</defs>
</svg>
