<svg width="14" height="14" viewBox="0 0 14 14" fill="none" xmlns="http://www.w3.org/2000/svg">
<path d="M9.40627 3.9375C9.29908 5.38316 8.20315 6.5625 7.00002 6.5625C5.7969 6.5625 4.69905 5.38344 4.59377 3.9375C4.4844 2.43359 5.5508 1.3125 7.00002 1.3125C8.44924 1.3125 9.51565 2.46094 9.40627 3.9375Z" stroke="#707070" stroke-width="1.3" stroke-linecap="round" stroke-linejoin="round"/>
<path d="M7.01356 8.58018C5.83339 8.58018 4.63081 7.51209 3.67775 8.27432C2.70975 9.0485 1.82453 10.1738 1.82453 11.5684C1.77066 11.9307 1.87536 12.6348 2.18789 12.6348H11.8125C12.1253 12.6348 12.3586 11.9307 12.3047 11.5684C12.3047 10.3105 11.2901 9.0485 10.3221 8.27432C9.36896 7.51209 8.19372 8.58018 7.01356 8.58018Z" stroke="#707070" stroke-width="1.3" stroke-miterlimit="10"/>
</svg>
