<svg width="14" height="14" viewBox="0 0 14 14" fill="none" xmlns="http://www.w3.org/2000/svg">
<path d="M1.89219 3.14727L3.34824 1.69258C3.45095 1.58942 3.57304 1.50756 3.70748 1.45172C3.84192 1.39588 3.98606 1.36715 4.13164 1.36719C4.42832 1.36719 4.70723 1.4834 4.91641 1.69258L6.4832 3.25937C6.58637 3.36209 6.66822 3.48417 6.72406 3.61861C6.7799 3.75305 6.80863 3.8972 6.80859 4.04277C6.80859 4.33945 6.69238 4.61836 6.4832 4.82754L5.3375 5.97324C5.60568 6.56436 5.97854 7.10211 6.43809 7.56055C6.89647 8.02121 7.43418 8.39542 8.02539 8.66523L9.17109 7.51953C9.2738 7.41637 9.39589 7.33452 9.53033 7.27867C9.66477 7.22283 9.80892 7.19411 9.95449 7.19414C10.2512 7.19414 10.5301 7.31035 10.7393 7.51953L12.3074 9.08496C12.4107 9.18786 12.4926 9.31017 12.5485 9.44485C12.6043 9.57953 12.633 9.72393 12.6328 9.86973C12.6328 10.1664 12.5166 10.4453 12.3074 10.6545L10.8541 12.1078C10.5205 12.4428 10.0598 12.6328 9.58672 12.6328C9.48691 12.6328 9.39121 12.6246 9.29687 12.6082C7.45391 12.3047 5.62598 11.3244 4.15078 9.85059C2.67695 8.37813 1.69805 6.55156 1.39043 4.70312C1.29746 4.13848 1.48477 3.55742 1.89219 3.14727V3.14727Z" fill="white"/>
</svg>
