<svg width="21" height="21" viewBox="0 0 21 21" fill="none" xmlns="http://www.w3.org/2000/svg">
<g clip-path="url(#clip0_20_2)">
<path fill-rule="evenodd" clip-rule="evenodd" d="M15.0413 13.5439L20.6903 19.1929C20.8889 19.3916 21.0003 19.6611 21.0002 19.9419C21.0001 20.2228 20.8885 20.4922 20.6898 20.6908C20.4911 20.8893 20.2216 21.0008 19.9408 21.0007C19.6599 21.0006 19.3905 20.8889 19.1919 20.6902L13.5429 15.0412C11.8542 16.3492 9.73069 16.9647 7.60428 16.7625C5.47787 16.5604 3.50834 15.5558 2.09636 13.953C0.684368 12.3503 -0.0640107 10.2698 0.00346372 8.1349C0.0709382 5.99997 0.949197 3.97093 2.45957 2.46055C3.96995 0.950174 5.99899 0.0719147 8.13392 0.00444028C10.2689 -0.0630342 12.3493 0.685345 13.952 2.09733C15.5548 3.50932 16.5594 5.47885 16.7616 7.60526C16.9637 9.73167 16.3482 11.8552 15.0402 13.5439H15.0413ZM8.40005 14.7C10.0709 14.7 11.6733 14.0362 12.8548 12.8547C14.0363 11.6733 14.7 10.0708 14.7 8.39998C14.7 6.72911 14.0363 5.12668 12.8548 3.9452C11.6733 2.76372 10.0709 2.09998 8.40005 2.09998C6.72918 2.09998 5.12676 2.76372 3.94528 3.9452C2.7638 5.12668 2.10005 6.72911 2.10005 8.39998C2.10005 10.0708 2.7638 11.6733 3.94528 12.8547C5.12676 14.0362 6.72918 14.7 8.40005 14.7V14.7Z" fill="white"/>
</g>
<defs>
<clipPath id="clip0_20_2">
<rect width="21" height="21" fill="white"/>
</clipPath>
</defs>
</svg>
