<svg width="15" height="14" viewBox="0 0 15 14" fill="none" xmlns="http://www.w3.org/2000/svg">
<g clip-path="url(#clip0_18_20)">
<path d="M12.2934 7.27393L12.9582 3.61736C12.9754 3.52279 12.9716 3.42559 12.9471 3.33265C12.9226 3.23971 12.8779 3.15328 12.8163 3.07949C12.7547 3.00569 12.6777 2.94633 12.5906 2.90559C12.5036 2.86486 12.4086 2.84375 12.3125 2.84375H3.6727L3.43836 1.55438C3.39264 1.30229 3.25984 1.07427 3.06313 0.910114C2.86642 0.745961 2.61831 0.656111 2.36211 0.65625H1.375C1.20095 0.65625 1.03403 0.725391 0.910961 0.848461C0.78789 0.971532 0.71875 1.13845 0.71875 1.3125C0.71875 1.48655 0.78789 1.65347 0.910961 1.77654C1.03403 1.89961 1.20095 1.96875 1.375 1.96875H2.17962L3.6272 9.93081C3.41325 10.149 3.2602 10.4194 3.18329 10.7152C3.10638 11.0109 3.10831 11.3217 3.18887 11.6165C3.26943 11.9112 3.42582 12.1797 3.64245 12.3953C3.85909 12.6108 4.12841 12.7658 4.4236 12.8448C4.71878 12.9239 5.02952 12.9242 5.32487 12.8458C5.62022 12.7674 5.88987 12.6129 6.10696 12.3979C6.32405 12.1828 6.481 11.9146 6.56218 11.62C6.64336 11.3254 6.64594 11.0147 6.56966 10.7188H8.86795C8.77669 11.0722 8.7982 11.4452 8.92947 11.7858C9.06075 12.1264 9.29522 12.4174 9.60007 12.6181C9.90493 12.8188 10.2649 12.9192 10.6296 12.9052C10.9944 12.8912 11.3456 12.7635 11.6341 12.54C11.9227 12.3165 12.1342 12.0083 12.2389 11.6587C12.3437 11.3091 12.3365 10.9354 12.2184 10.5901C12.1003 10.2447 11.8772 9.94492 11.5803 9.73265C11.2834 9.52038 10.9275 9.40626 10.5625 9.40625H4.86587L4.70673 8.53125H10.7868C11.1455 8.53138 11.4927 8.40557 11.7681 8.17578C12.0434 7.94598 12.2294 7.6268 12.2934 7.27393ZM5.3125 11.1562C5.3125 11.2428 5.28684 11.3274 5.23877 11.3993C5.19069 11.4713 5.12237 11.5273 5.04242 11.5604C4.96248 11.5936 4.87451 11.6022 4.78965 11.5853C4.70478 11.5685 4.62683 11.5268 4.56564 11.4656C4.50446 11.4044 4.46279 11.3265 4.44591 11.2416C4.42903 11.1567 4.43769 11.0688 4.4708 10.9888C4.50392 10.9089 4.55999 10.8406 4.63194 10.7925C4.70388 10.7444 4.78847 10.7188 4.875 10.7188C4.99099 10.7189 5.10218 10.765 5.1842 10.8471C5.26622 10.9291 5.31236 11.0403 5.3125 11.1562ZM10.5625 11.5938C10.476 11.5938 10.3914 11.5681 10.3194 11.52C10.2475 11.4719 10.1914 11.4036 10.1583 11.3237C10.1252 11.2437 10.1165 11.1558 10.1334 11.0709C10.1503 10.986 10.192 10.9081 10.2531 10.8469C10.3143 10.7857 10.3923 10.744 10.4771 10.7272C10.562 10.7103 10.65 10.7189 10.7299 10.7521C10.8099 10.7852 10.8782 10.8412 10.9263 10.9132C10.9743 10.9851 11 11.0697 11 11.1562C10.9999 11.2722 10.9537 11.3834 10.8717 11.4654C10.7897 11.5475 10.6785 11.5936 10.5625 11.5938ZM3.91135 4.15625H11.5261L11.0019 7.03916C10.9928 7.08955 10.9662 7.13514 10.9269 7.16797C10.8876 7.20079 10.838 7.21876 10.7868 7.21875H4.46812L3.91135 4.15625Z" fill="#707070"/>
</g>
<defs>
<clipPath id="clip0_18_20">
<rect width="14" height="14" fill="white" transform="translate(0.5)"/>
</clipPath>
</defs>
</svg>
