<svg width="25" height="20" viewBox="0 0 25 20" fill="none" xmlns="http://www.w3.org/2000/svg">
<path d="M0 3.12231V6.15385H3.90833L0 3.12231ZM3.23889 20H9.02778V15.51L3.23889 20ZM15.9722 15.5108V20H21.7604L15.9722 15.5108ZM0 13.8462V16.8777L3.90972 13.8462H0ZM21.7618 0H15.9722V4.49L21.7618 0ZM25 16.8785V13.8462H21.0896L25 16.8785ZM25 6.15385V3.12231L21.091 6.15385H25ZM9.02778 0H3.23889L9.02778 4.49V0Z" fill="#00247D"/>
<path d="M17.5025 13.8805L24.3064 19.1587C24.6387 18.7795 24.8775 18.3121 25 17.8013L19.9454 13.8805H17.5025ZM8.99748 13.8805H7.49755L0.694269 19.1579C1.05927 19.5693 1.52725 19.8634 2.05198 20L8.99748 14.6123V13.8805ZM16.0032 6.11952H17.5032L24.3064 0.842064C23.9352 0.424738 23.4646 0.132733 22.9494 0L16.0032 5.38766V6.11952ZM7.49755 6.11952L0.694269 0.842064C0.362164 1.22156 0.123171 1.68882 0 2.19946L5.05465 6.11952H7.49755Z" fill="#CF1B2B"/>
<path d="M25 12.3077H14.5833V20H15.9722V15.5108L21.7604 20H22.2222C22.5912 20.0001 22.9564 19.9185 23.2965 19.7601C23.6366 19.6018 23.9447 19.3697 24.2028 19.0777L17.4583 13.8462H19.8799L24.8903 17.7323C24.9549 17.4731 25 17.2046 25 16.9231V16.8785L21.0896 13.8462H25V12.3077ZM0 12.3077V13.8462H3.90972L0 16.8777V16.9231C0 17.7623 0.304861 18.5215 0.797222 19.0769L7.54097 13.8462H9.02778V14.5715L2.14306 19.9108C2.34722 19.9646 2.55833 20 2.77778 20H3.23889L9.02778 15.51V20H10.4167V12.3077H0ZM25 3.07692C25.0004 2.27076 24.714 1.49689 24.2028 0.923077L17.459 6.15385H15.9722V5.42846L22.8576 0.0884617C22.6496 0.0319442 22.4364 0.00226004 22.2222 2.9106e-07H21.7618L15.9722 4.49V2.9106e-07H14.5833V7.69231H25V6.15385H21.091L25 3.12231V3.07692ZM9.02778 2.9106e-07V4.49L3.23889 2.9106e-07H2.77778C2.40877 -0.000177825 2.04345 0.081395 1.70332 0.239919C1.36319 0.398444 1.05511 0.630718 0.797222 0.923077L7.54097 6.15385H5.11944L0.109028 2.26846C0.0401251 2.53132 0.00345376 2.80324 0 3.07692L0 3.12231L3.90833 6.15385H0V7.69231H10.4167V2.9106e-07H9.02778Z" fill="#EEEEEE"/>
<path d="M14.5833 7.69231V0H10.4167V7.69231H0V12.3077H10.4167V20H14.5833V12.3077H25V7.69231H14.5833Z" fill="#CF1B2B"/>
</svg>
