<svg width="15" height="12" viewBox="0 0 15 12" fill="none" xmlns="http://www.w3.org/2000/svg">
<path d="M0 1.87338V3.69231H2.345L0 1.87338ZM1.94333 12H5.41667V9.306L1.94333 12ZM9.58333 9.30646V12H13.0562L9.58333 9.30646ZM0 8.30769V10.1266L2.34583 8.30769H0ZM13.0571 0H9.58333V2.694L13.0571 0ZM15 10.1271V8.30769H12.6537L15 10.1271ZM15 3.69231V1.87338L12.6546 3.69231H15ZM5.41667 0H1.94333L5.41667 2.694V0Z" fill="#00247D"/>
<path d="M10.5015 8.32829L14.5839 11.4952C14.7832 11.2677 14.9265 10.9873 15 10.6808L11.9672 8.32829H10.5015ZM5.39849 8.32829H4.49853L0.416562 11.4948C0.635561 11.7416 0.916351 11.918 1.23119 12L5.39849 8.7674V8.32829ZM9.60193 3.67171H10.5019L14.5839 0.505239C14.3611 0.254843 14.0788 0.0796397 13.7697 0L9.60193 3.2326V3.67171ZM4.49853 3.67171L0.416562 0.505239C0.217299 0.732933 0.0739027 1.01329 0 1.31967L3.03279 3.67171H4.49853Z" fill="#CF1B2B"/>
<path d="M15 7.38462H8.75V12H9.58333V9.30646L13.0562 12H13.3333C13.5547 12 13.7738 11.9511 13.9779 11.8561C14.182 11.7611 14.3668 11.6218 14.5217 11.4466L10.475 8.30769H11.9279L14.9342 10.6394C14.9729 10.4838 15 10.3228 15 10.1538V10.1271L12.6537 8.30769H15V7.38462ZM0 7.38462V8.30769H2.34583L0 10.1266V10.1538C0 10.6574 0.182917 11.1129 0.478333 11.4462L4.52458 8.30769H5.41667V8.74292L1.28583 11.9465C1.40833 11.9788 1.535 12 1.66667 12H1.94333L5.41667 9.306V12H6.25V7.38462H0ZM15 1.84615C15.0003 1.36245 14.8284 0.898132 14.5217 0.553846L10.4754 3.69231H9.58333V3.25708L13.7146 0.053077C13.5898 0.0191665 13.4618 0.00135602 13.3333 1.74636e-07H13.0571L9.58333 2.694V1.74636e-07H8.75V4.61538H15V3.69231H12.6546L15 1.87338V1.84615ZM5.41667 1.74636e-07V2.694L1.94333 1.74636e-07H1.66667C1.44526 -0.000106695 1.22607 0.048837 1.02199 0.143952C0.817912 0.239066 0.633068 0.378431 0.478333 0.553846L4.52458 3.69231H3.07167L0.0654167 1.36108C0.0240751 1.51879 0.00207226 1.68194 0 1.84615L0 1.87338L2.345 3.69231H0V4.61538H6.25V1.74636e-07H5.41667Z" fill="#EEEEEE"/>
<path d="M8.75 4.61538V0H6.25V4.61538H0V7.38462H6.25V12H8.75V7.38462H15V4.61538H8.75Z" fill="#CF1B2B"/>
</svg>
