<svg width="12" height="12" viewBox="0 0 12 12" fill="none" xmlns="http://www.w3.org/2000/svg">
<g clip-path="url(#clip0_19_2)">
<path d="M0 3.01963V4.33329H1.876L0 3.01963ZM1.55467 10.3333H4.33333V8.38763L1.55467 10.3333ZM7.66667 8.38796V10.3333H10.445L7.66667 8.38796ZM0 7.66663V8.98029L1.87667 7.66663H0ZM10.4457 1.66663H7.66667V3.61229L10.4457 1.66663ZM12 8.98063V7.66663H10.123L12 8.98063ZM12 4.33329V3.01963L10.1237 4.33329H12ZM4.33333 1.66663H1.55467L4.33333 3.61229V1.66663Z" fill="#00247D"/>
<path d="M8.38003 7.66662L11.6174 9.93362C11.7755 9.77075 11.8891 9.57 11.9474 9.35062L9.54237 7.66662H8.38003ZM4.33337 7.66662H3.6197L0.382701 9.93329C0.556368 10.11 0.779035 10.2363 1.0287 10.295L4.33337 7.98096V7.66662ZM7.6667 4.33329H8.38037L11.6174 2.06662C11.4407 1.88738 11.2168 1.76196 10.9717 1.70496L7.6667 4.01896V4.33329ZM3.6197 4.33329L0.382701 2.06662C0.224686 2.22961 0.110973 2.4303 0.0523682 2.64962L2.45737 4.33329H3.6197Z" fill="#CF1B2B"/>
<path d="M12 6.99996H7V10.3333H7.66667V8.38796L10.445 10.3333H10.6667C10.8438 10.3333 11.0191 10.298 11.1823 10.2294C11.3456 10.1607 11.4935 10.0602 11.6173 9.93363L8.38 7.66663H9.54233L11.9473 9.35063C11.9783 9.23829 12 9.12196 12 8.99996V8.98063L10.123 7.66663H12V6.99996ZM0 6.99996V7.66663H1.87667L0 8.98029V8.99996C0 9.36363 0.146333 9.69263 0.382667 9.93329L3.61967 7.66663H4.33333V7.98096L1.02867 10.2946C1.12667 10.318 1.228 10.3333 1.33333 10.3333H1.55467L4.33333 8.38763V10.3333H5V6.99996H0ZM12 2.99996C12.0002 2.65062 11.8627 2.31528 11.6173 2.06663L8.38033 4.33329H7.66667V4.01896L10.9717 1.70496C10.8718 1.68047 10.7695 1.66761 10.6667 1.66663H10.4457L7.66667 3.61229V1.66663H7V4.99996H12V4.33329H10.1237L12 3.01963V2.99996ZM4.33333 1.66663V3.61229L1.55467 1.66663H1.33333C1.15621 1.66655 0.980855 1.7019 0.817593 1.77059C0.65433 1.83929 0.506455 1.93994 0.382667 2.06663L3.61967 4.33329H2.45733L0.0523333 2.64963C0.0192601 2.76353 0.0016578 2.88136 0 2.99996L0 3.01963L1.876 4.33329H0V4.99996H5V1.66663H4.33333Z" fill="#EEEEEE"/>
<path d="M7 4.99996V1.66663H5V4.99996H0V6.99996H5V10.3333H7V6.99996H12V4.99996H7Z" fill="#CF1B2B"/>
</g>
<defs>
<clipPath id="clip0_19_2">
<rect width="12" height="12" fill="white"/>
</clipPath>
</defs>
</svg>
